inDegrees=yes
name=ik_Xsens_quaternion
DataType=double
version=3
OpenSimVersion=4.4-2022-07-23-0e9fedc
endheader
time	pelvis_tilt	pelvis_list	pelvis_rotation	pelvis_tx	pelvis_ty	pelvis_tz	hip_flexion_r	hip_adduction_r	hip_rotation_r	knee_angle_r	knee_angle_r_beta	ankle_angle_r	subtalar_angle_r	mtp_angle_r	hip_flexion_l	hip_adduction_l	hip_rotation_l	knee_angle_l	knee_angle_l_beta	ankle_angle_l	subtalar_angle_l	mtp_angle_l	lumbar_extension	lumbar_bending	lumbar_rotation	arm_flex_r	arm_add_r	arm_rot_r	elbow_flex_r	pro_sup_r	wrist_flex_r	wrist_dev_r	arm_flex_l	arm_add_l	arm_rot_l	elbow_flex_l	pro_sup_l	wrist_flex_l	wrist_dev_l
0	0	0	0	0	0.93	0	0	0	0	0	0	0	0	0	0	0	0	0	0	0	0	0	0	0	0	0	0	0	0	0	0	0	0	0	0	0	0	0	0
0.01666666666666667	13.22348774162843	0.2722852947793895	19.49823194734105	0	0.93	0	9.29272606308758	-1.235154433111932	7.643196716874697	0.002642811741831147	4.612576640531987e-05	-1.087088828497578	0	0	4.047367001641346	-1.850021776593642	0	9.937068222409154	0.1734345584763399	-1.087088828497578	0	0	0	0	0	0	-9.628498314493175e-37	0	0	0	0	0	0	-9.628498314493175e-37	0	0	0	0	0
0.03333333333333333	23.29153523017576	-12.87206281345818	42.26018803224889	0	0.93	0	12.87680132015574	-5.616129081574483	14.16955276948671	0.001526315612895068	2.663923286961415e-05	-1.595088965217063	0	0	6.180643097005704	-2.744525257032692	0	13.62522910791125	0.237805109271621	-1.595088965217063	0	0	0	0	0	0	0	0	5.88050448075993e-47	3.92033632050662e-47	0	0	0	0	0	5.88050448075993e-47	3.92033632050662e-47	0	0
0.05	34.19367230691752	-47.65304684325571	70.32997325077936	0	0.93	0	12.00451464765819	-19.76250968476623	21.28954967801242	0.002143653365282773	3.74138092456411e-05	-2.247894956952854	0	0	9.209979511886043	-3.928260379442407	0	18.28599034508164	0.3191507385095687	-2.247894956952854	0	0	0	0	0	0	0	0	0	0	0	0	0	0	0	0	0	0	0
0.06666666666666667	14.34104427007559	-80.96914396071188	106.8123084179593	0	0.93	0	22.26539088357113	14.42291097067222	0.8780175439067899	119.9446688605424	2.09342939183078	-4.348621474716372	0	0	20.14303647119627	-7.913259386698479	0	32.68880868447018	0.5705273400985209	-4.348621474694295	0	0	0	0	0	0	0	0	0	0	0	0	0	0	0	0	5.847986271065407e-41	0	0
0.08333333333333333	52.89879756163111	-175.2427390387147	137.3640116910573	0	0.93	0	80.69986652744038	-6.985247209197554	-2.023314986961317	87.0831871981552	1.519888339738384	-4.909578220919964	0	0	45.11864585480257	-9.7207500790055	0	60.11930726209126	1.04927985574163	-4.909578245095109	0	0	0	0	0	0	0	0	0	0	0	0	0	0	0	0	0	0	0
0.1	79.1609603600193	-157.0008734099715	192.0051023198622	0	0.93	0	71.34059087193036	-10.5115261964714	1.09462570304801	0.002004757804153787	3.498962438753523e-05	-4.958711164367554	0	0	45.09486840057759	-9.850615494025631	0	60.09623425955029	1.048877155878969	-4.958711175406482	0	0	0	0	0	0	6.05687166388016e-49	0	0	0	0	0	0	6.05687166388016e-49	0	0	0	0	0
0.1166666666666667	100.0262563552168	-90.06025738735903	178.6711084937355	0	0.93	0	76.31255896783033	-21.2588063833663	18.35046676318401	0.00114428654194302	1.997156774316589e-05	-4.973076153200208	0	0	45.08358669526456	-9.894144471981688	0	60.08507717209426	1.048682427967928	-4.97307616039851	0	0	0	0	0	0	-8.483269577462845e-37	0	7.694452819006655e-40	0	0	0	0	-8.483269577462845e-37	0	7.694452819006655e-40	0	0	0
0.1333333333333333	110.0302577828429	-95.36201942098562	229.6541887395524	0	0.93	0	11.96898780935124	-7.800318808144153	12.23404001363066	119.9854067005271	2.094140401268664	-4.997121203525113	0	0	45.03818808398386	-9.984373193717234	0	60.04320198513721	1.04795156808064	-4.997121204294748	0	0	0	0	0	0	0	0	1.151218691362919e-38	1.513298996965657e-40	0	0	0	0	0	1.151218691362919e-38	1.513298996965657e-40	0	0
0.15	135.1118565478665	-117.7597300033288	194.6471439615629	0	0.93	0	7.963214662300512	-2.024086995103854	-9.249420584448425	118.9245864478433	2.075625595087493	-4.998447903486224	0	0	45.03253689436384	-9.990374040464788	0	60.03729815340993	1.047848526778515	-4.998447903901153	0	0	0	0	0	0	0	0	0	0	0	0	0	0	0	0	0	0	0
0.1666666666666667	128.9175292170125	-167.6689799593049	219.8005029717398	0	0.93	0	22.23144045703347	-5.075026771062166	0.7128737352530924	0.001188378578421114	2.074111895361807e-05	-4.999745444968928	0	0	45.0158239444761	-9.998010258115341	0	60.02038332654143	1.047553307357255	-4.999745445036943	0	0	0	0	0	0	-3.691713402748125e-38	0	9.534003100443681e-40	0	0	0	0	-3.691713402748125e-38	0	9.534003100443681e-40	0	0	0
0.1833333333333333	169.6058912450672	-157.6401738988068	263.1800915536043	0	0.93	0	38.13176309792812	-13.65785038296778	17.71994128370736	0.002922250597294386	5.100289449115794e-05	-4.999821820259704	0	0	45.01406814015903	-9.998517383198259	0	60.01815178318311	1.047514359578251	-4.999821820307298	0	0	0	0	-1.328261611114721e-65	0	0	0	0	6.807844845288462e-37	0	-8.014422056147081e-54	0	0	-1.914226718997373e-48	0	6.807844845288462e-37	-7.225963905957802e-43	-1.655300726812525e-35
0.2	195.1130496898923	-155.56745830477	289.2783821686183	0	0.93	0	38.93958770153625	-17.67546506041186	24.82688014274571	0.001053546233047082	1.838785058865508e-05	-4.999848685470233	0	0	45.01326181712558	-9.998708767256145	0	60.01712348873452	1.047496412454443	-4.99984868551064	0	0	0	0	0	0	-4.834370671502245e-37	0	1.018210602900994e-39	3.10669717547245e-39	0	-4.423297576000436e-74	0	-4.834370671502245e-37	0	1.018210602900994e-39	3.10669717547245e-39	0	0
0.2166666666666667	200.45770309939	-159.708565203586	297.8413668301413	0	0.93	0	38.25196961646753	-18.49132856965019	26.62100030480627	0.001184032291427354	2.066526193534037e-05	-4.999853971903445	0	0	45.01308957018729	-9.998747107861124	0	60.01690113514196	1.04749253165215	-4.999853971942441	0	0	0	0	0	0	-4.786031750819086e-41	0	0	1.691681418494644e-38	0	-4.379068979309605e-78	0	-4.786031750819086e-41	0	0	1.691681418494644e-38	0	0
0.2333333333333333	188.0931055259603	-163.4000266164497	292.057291520461	0	0.93	0	42.32760942514965	-16.34110338951497	19.40903797817602	0.0008696542564838388	1.517833012962623e-05	-4.999869221288377	-1.495489624216698e-52	0	45.01262198926344	-9.998856232933882	0	60.01630587345709	1.047482142375837	-4.999869221322927	0	0	0	-5.981958496866791e-52	-1.546300029282831e-77	-4.591200316824205e-37	-4.262811588003004e-49	0	0	1.98874273418883e-39	-1.165436097032669e-36	0	2.542100525194982e-36	-4.262811588003004e-49	0	1.052357267868557e-38	1.052357267868557e-38	0	0
0.25	170.4734163392639	-164.9454881810342	282.9541827845085	0	0.93	0	45.35729806292863	-13.26052067356134	9.944947484833618	0.000702797110780087	1.226612355661585e-05	-4.999888782471081	0	0	45.01197973999198	-9.998998791473106	0	60.01548412832516	1.047467800217673	-4.999888782500458	0	0	0	0	0	1.013383187190796e-72	0	0	0	0	0	0	0	0	0	0	0	0	0
0.2666666666666667	162.7820501325525	-168.2658704798481	286.0049408827599	0	0.93	0	47.07968931243754	-11.10452024938844	8.436030350503257	0.0007155925075752317	1.248944535979026e-05	-4.999892130759673	0	0	45.01185157190713	-9.999024108343368	0	60.01531932409179	1.04746492384118	-4.999892130788168	0	0	0	0	0	0	0	0	6.580775653704595e-39	6.580778162719839e-39	0	0	0	0	0	6.580775653704595e-39	6.580778162719839e-39	0	0
0.2833333333333333	166.8693852665808	-177.0422154720466	303.7397482017751	0	0.93	0	48.76543998709231	-9.222699325883351	13.07942823466614	0.001045729124860475	1.825141631281417e-05	-4.999901177996026	0	0	45.01149103835414	-9.999093229419348	0	60.01485380928055	1.047456799075007	-4.99990117802213	0	0	0	0	0	0	0	0	0	0	0	0	0	0	0	0	0	0	0
0.3	158.6963349777393	-186.3063316121473	316.2654986821697	0	0.93	0	53.14622028925108	-5.865565926409182	14.28937121377922	0.002341706691163803	4.087049187679036e-05	-4.999901210269974	0	0	45.01149019523812	-9.999093457697224	0	60.01485295122308	1.047456784099078	-4.99990121029607	0	0	0	0	0	0	1.333096149106533e-37	0	0	0	0	-1.470126120189982e-47	0	1.333096149106533e-37	0	0	0	0	-1.470126120189982e-47
0.3166666666666667	144.2883040325946	-194.1390247302971	321.9934406779211	0	0.93	0	59.57240961516147	-2.792320357018726	13.55531400001445	0.01433735247849165	0.0002502340067686488	-4.999901517889946	0	0	45.01148177123356	-9.999095659414749	0	60.01484428830021	1.047456632902552	-4.999901517915958	0	0	0	0	0	0	0	0	2.259398699048426e-39	0	-1.230791229169862e-36	1.767346146375699e-67	0	4.595559987986671e-37	0	2.259398699048426e-39	0	0	1.767346146375699e-67
0.3333333333333333	128.7450701741108	-203.7541441536876	330.7926878689325	0	0.93	0	67.77633636891993	2.003471551955868	13.48293471544574	15.89154046265885	0.2773597042872999	-4.999905798914666	0	0	45.0113629474391	-9.999126445433982	0	60.0147223427243	1.047454504550744	-4.999905798939548	0	0	0	0	0	0	0	0	0	4.364901694786488e-39	0	0	0	0	0	0	4.364901694786488e-39	0	0
0.35	123.0708781648496	-211.0000663422804	343.8516036967271	0	0.93	0	74.93368121426775	4.761735010868589	11.09137441910646	34.55613537588393	0.6031183390740628	-4.999911983625429	0	0	45.01112989584758	-9.999173538752503	0	60.01444255405614	1.047449621317275	-4.999911983648675	0	0	0	0	0	0	0	0	1.052357267868557e-38	0	0	-1.077613842297402e-35	0	0	0	1.052357267868557e-38	0	0	-1.077613842297402e-35
0.3666666666666666	129.428783433382	-211.1366602263927	352.3198491759463	0	0.93	0	75.54354674794283	6.776477721653891	11.61294901727023	42.92914172480668	0.7492548681531541	-4.999918174999517	0	0	45.0108646272999	-9.999221796041995	0	60.01410153768006	1.047443669458709	-4.999918175021124	0	0	0	0	0	0	0	0	2.630893169671392e-39	0	0	-2.003965690688149e-55	0	0	0	2.630893169671392e-39	0	0	-2.003965690688149e-55
0.3833333333333333	146.1207488847343	-210.2033955298072	356.5671871191284	0	0.93	0	65.43792655177141	3.309410606566185	10.77527024497872	33.69706539137962	0.588124739339406	-4.999929476402395	5.762110463873724e-17	2.582747689178281e-16	45.01036659507191	-9.999311021883033	0	60.01347459958056	1.047432727324666	-4.999929476421019	7.218429607598101e-16	6.151522103720557e-17	0	2.012606381804444e-19	9.291429101803431e-29	2.268613007980308e-19	5.59852395773571e-26	1.144910326444367e-16	0	0	-9.707353460885774e-18	4.601943620588387e-18	-1.302435081036049e-16	-7.110237765238089e-17	-4.973849756470855e-17	0	0	1.561400453246677e-18	6.209394384988775e-18
0.4	172.0454074900224	-209.1124705861202	363.5382822146316	0	0.93	0	51.93960907901285	1.487748302617864	9.743650195956391	27.66254775215054	0.4828025377651833	-4.99993486821041	0	0	45.01012526701518	-9.999354244497063	0	60.01319235247265	1.047427801183329	-4.99993486822761	0	0	0	0	0	0	0	0	0	2.104714535737113e-38	0	0	0	0	0	0	2.104714535737113e-38	0	0
0.4166666666666667	207.7446478846007	-199.3456450009605	383.8503988633829	0	0.93	0	41.4801857137871	8.977060080000834	9.712580593438632	52.89434021928235	0.9231803924965364	-4.999939870731182	0	0	45.00992411320109	-9.99939385652978	0	60.01297917295571	1.047424080498861	-4.999939870747055	0	0	0	0	0	0	0	0	0	0	0	0	0	0	0	0	0	0	0
0.4333333333333333	272.9162909693086	-141.1920881620375	409.2605008994475	5.308809237661514e-41	0.93	-4.253849930508613e-37	27.12328552677949	4.392180672334703	5.375490711967758	119.9897956782623	2.09421700338094	-5.000015262052171	2.162229556550466e-18	-1.472987215304888e-20	44.9996919126411	-10.00020465128226	-9.376228470380067e-27	60.00152442770409	1.047224157479243	-5.000015262029438	2.854132304921855e-19	-1.548729290136117e-19	-1.771835523517102e-35	-4.220201246623149e-23	-1.895382742627951e-32	2.981171282888024e-20	-1.183455520176672e-23	9.89353571679752e-16	0	0	9.584225835306633e-22	3.38606445926171e-21	1.476456307397683e-15	1.676367504499987e-15	-7.879897240102854e-17	0	0	-1.434330947888992e-21	-2.43204695898352e-21
0.45	324.496619703453	-128.769128332269	397.6930768835941	2.159042138773611e-76	0.93	2.210859150104178e-74	8.25518900999289	17.19753794135859	-6.026806907930121	119.9983407831493	2.094366143596146	-5.000009583193641	3.337979575302426e-50	-6.90584701385421e-48	44.99972844228609	-10.00014204255258	-9.376228470380067e-27	60.00136816003767	1.047221430093949	-5.000009583179307	0	-5.022930910649107e-47	4.539956678614768e-70	0	0	2.695230869842921e-47	-2.107345428906785e-36	2.033566791009865e-48	0	0	-4.546807148273893e-43	-5.111536801521916e-55	-8.828413628015885e-47	0	2.050129338598065e-49	0	0	-1.568134528202648e-46	-1.077613842297402e-35
